<?xml version="1.0" encoding="UTF-8" standalone="no"?>
<svg
   viewBox="0 0 60.580002 82.839996"
   x="0px"
   y="0px"
   version="1.1"
   id="svg1"
   width="60.580002"
   height="82.839996"
   xmlns="http://www.w3.org/2000/svg"
   xmlns:svg="http://www.w3.org/2000/svg">
  <defs
     id="defs1" />
  <path
     d="m 49.08,82.84 a 11.51,11.51 0 0 0 11.5,-11.5 V 17.02 A 2.51,2.51 0 0 0 59.85,15.25 L 45.29,0.73 A 2.51,2.51 0 0 0 43.52,0 H 11.5 A 11.51,11.51 0 0 0 0,11.5 v 59.84 a 11.51,11.51 0 0 0 11.5,11.5 z m 5.32,-66 h -7.2 a 3.5,3.5 0 0 1 -3.5,-3.5 V 6.14 Z M 5,71.34 V 11.5 A 6.5,6.5 0 0 1 11.5,5 h 27.2 v 8.42 a 8.51,8.51 0 0 0 8.5,8.5 h 8.38 v 49.42 a 6.5,6.5 0 0 1 -6.5,6.5 H 11.5 A 6.5,6.5 0 0 1 5,71.34 Z m 42.7,-0.51 a 2.5,2.5 0 0 0 2.5,-2.5 v -21 a 2.5,2.5 0 0 0 -2.5,-2.5 H 12.88 a 2.5,2.5 0 0 0 -2.5,2.5 v 21 a 2.5,2.5 0 0 0 2.5,2.5 z M 15.38,60.74 h 12 v 5.09 h -12 z m 17,5.09 V 60.74 H 45.2 v 5.09 z M 45.2,55.74 H 32.43 V 49.8 H 45.2 Z M 27.43,49.8 v 5.94 h -12 V 49.8 Z M 26.64,29.61 c 0,-1.3 -1.54,-2.39 -3.35,-2.39 -4.6,0 -8.35,-3.32 -8.35,-7.4 a 7.58,7.58 0 0 1 5.85,-7 v -1.16 a 2.5,2.5 0 1 1 5,0 v 1.11 a 7.58,7.58 0 0 1 5.85,7 2.5,2.5 0 0 1 -5,0 c 0,-1.25 -1.54,-2.35 -3.35,-2.35 -1.81,0 -3.35,1.09 -3.35,2.39 0,1.3 1.54,2.4 3.35,2.4 4.6,0 8.35,3.31 8.35,7.39 a 7.59,7.59 0 0 1 -5.85,7.06 v 1.76 a 2.5,2.5 0 0 1 -5,0 v -1.75 a 7.59,7.59 0 0 1 -5.85,-7.06 2.5,2.5 0 0 1 5,0 c 0,1.3 1.54,2.4 3.35,2.4 1.81,0 3.35,-1.1 3.35,-2.4 z"
     id="path1"
     style="fill:#225500;fill-opacity:1;stroke:none;stroke-opacity:1" />
</svg>
